_______ Visit us at our Semi Public Bittorrent Community ________
  
http://p2pdl.com  _____________________________  http://p2pdl.com


Stoker 2013 BRRip 480p x264 AAC - VYTO


Genre: Drama | Mystery | Thriller
Plot: After India's father dies, her Uncle Charlie, who she never knew existed,
comes to live withher and her unstable mother. She comes to suspect this mysterious,
charming man has ulterior motives and becomes increasingly infatuated with him.   
Director: Chan-wook Park
Stars:  Mia Wasikowska, Nicole Kidman, Matthew Goode.
Rated: R for disturbing violent and sexual content.


Info: 
http://www.imdb.com/title/tt1682180/


Format                         : MPEG-4
File size                      : 317 MiB
Duration                       : 1h 38mn
Overall bit rate mode          : Variable
Overall bit rate               : 448 Kbps
Source                         : 720p.BluRay.DTS.x264-PHD

Video
Format                         : AVC
Bit rate                       : 405 Kbps
Width                          : 720 pixels
Height                         : 304 pixels
Display aspect ratio           : 2.35:1
Frame rate mode                : Constant
Frame rate                     : 23.976 fps
Stream size                    : 286 MiB (90%)
Writing library                : x264 core 130 r2273

Audio
Format                         : AAC
Bit rate mode                  : Variable
Bit rate                       : 40.0 Kbps
Channel(s)                     : 2 channels
Channel positions              : Front: L R
Sampling rate                  : 48.0 KHz
Stream size                    : 28.3 MiB (9%)
Language                       : English

Subtitle                       : Yes(English)

Screens:
 
http://ultraimg.com/images/q0fBk.png 
http://ultraimg.com/images/JY1vT.png 
http://ultraimg.com/images/dJOut.png 
http://ultraimg.com/images/00gOx.png 
http://ultraimg.com/images/bwD3g.png 
http://ultraimg.com/images/g7cR.png 
http://ultraimg.com/images/kgZqw.png 
http://ultraimg.com/images/4vfT.png

----------------------------------------------------------------------------------------------------


Encoded using revolutionary 10bit encoding, which enables us to provide you more crispier 
and sharper images at small sizes, just make sure you follow our instructions without a fault.
Recommend to you to use latest version of VLC player. Install K-Lite Codec Pack or shark007 codecs
in case of any kind of problem in playback (For non-VLC Media Player users). Alternatively, install
Core AVC codecs, the fastest decoder that there is coupled with Community Center Codec Pack and play
on Windows Media Player Classic. Check sample to be sure.
Enjoy!

Encoder Notes:Looking For Early Access To Anything You Can Provide DVDScr, R5, DVDR, BluRay, Direct
Audio, Music Releases and Seedboxes. We require dedicated servers, so as to do more 
and fast releases of movies.
If You Got anything to offer please contact us at "contact@p2pdl.com".

Face book Fan Page:  